<?xml version="1.0" standalone="no"?>
<!DOCTYPE svg PUBLIC "-//W3C//DTD SVG 20010904//EN"
 "http://www.w3.org/TR/2001/REC-SVG-20010904/DTD/svg10.dtd">
<svg version="1.0" xmlns="http://www.w3.org/2000/svg"
 width="109.000000pt" height="109.000000pt" viewBox="0 0 109.000000 109.000000"
 preserveAspectRatio="xMidYMid meet">
<metadata>
Created by potrace 1.14, written by Peter Selinger 2001-2017
</metadata>
<g transform="translate(0.000000,109.000000) scale(0.100000,-0.100000)"
fill="#000000" stroke="none">
<path d="M0 545 l0 -545 545 0 545 0 0 545 0 545 -545 0 -545 0 0 -545z m632
223 c33 -27 26 -78 -11 -78 -29 0 -47 28 -33 51 15 24 15 29 -2 29 -31 0 -46
-30 -46 -91 0 -59 0 -59 30 -59 17 0 30 -4 30 -10 0 -5 -13 -10 -30 -10 l-30
0 0 -130 c0 -107 3 -131 15 -135 47 -15 48 -19 8 -23 -23 -2 -64 -1 -90 1 -38
3 -44 5 -25 11 21 8 22 12 22 142 0 127 -1 134 -20 134 -11 0 -20 5 -20 10 0
6 9 10 19 10 14 0 21 9 25 30 3 17 9 43 12 60 3 16 17 39 31 50 29 23 91 27
115 8z"/>
</g>
</svg>
